<svg width="545" height="264" viewBox="0 0 545 264" fill="none" xmlns="http://www.w3.org/2000/svg">
<path d="M1.3 198L1.69 195.92L12.48 190.72L24.96 119.48L15.99 114.28L16.38 112.2H74.23L70.33 134.56H68.25L63.31 118.7H36.27L23.53 190.72L35.1 195.92L34.71 198H1.3ZM79.7601 199.3C76.2934 199.3 73.4767 197.827 71.3101 194.88C69.2301 191.847 68.1901 187.34 68.1901 181.36C68.1901 175.987 69.0134 170.743 70.6601 165.63C72.3934 160.517 74.7334 155.88 77.6801 151.72C80.7134 147.56 84.1801 144.267 88.0801 141.84C91.9801 139.413 96.1401 138.2 100.56 138.2C102.727 138.2 104.807 138.46 106.8 138.98C108.793 139.5 110.57 140.193 112.13 141.06L116.68 138.2H119.93L112 182.53C111.567 185.13 111.48 186.993 111.74 188.12C112.087 189.247 112.823 189.81 113.95 189.81C115.423 189.81 117.027 189.03 118.76 187.47C120.493 185.823 122.14 183.353 123.7 180.06L125.39 180.84C122.877 187.34 120.147 192.063 117.2 195.01C114.34 197.87 111.393 199.3 108.36 199.3C105.327 199.3 103.247 198.13 102.12 195.79C100.993 193.45 100.777 190.33 101.47 186.43L102.12 183.05H101.6C98.3067 188.077 94.8401 192.063 91.2001 195.01C87.5601 197.87 83.7467 199.3 79.7601 199.3ZM78.0701 176.29C78.0701 181.143 78.5901 184.783 79.6301 187.21C80.7567 189.55 82.8367 190.72 85.8701 190.72C87.9501 190.72 90.0301 190.027 92.1101 188.64C94.1901 187.253 96.1834 185.477 98.0901 183.31C99.9967 181.143 101.687 178.933 103.16 176.68L107.97 149.9C106.323 147.733 104.633 146.087 102.9 144.96C101.253 143.833 99.2167 143.27 96.7901 143.27C93.0634 143.27 89.7701 144.873 86.9101 148.08C84.1367 151.287 81.9701 155.403 80.4101 160.43C78.8501 165.457 78.0701 170.743 78.0701 176.29ZM150.229 199.3C145.116 199.3 141.303 198.737 138.789 197.61C136.363 196.397 134.543 194.837 133.329 192.93C132.723 192.063 132.333 191.413 132.159 190.98C131.986 190.46 131.899 189.897 131.899 189.29C131.899 188.683 132.029 188.077 132.289 187.47C132.636 186.863 133.156 186.343 133.849 185.91L137.489 183.7H138.399L141.129 187.47C142.776 189.723 144.336 191.457 145.809 192.67C147.283 193.797 149.276 194.36 151.789 194.36C155.343 194.36 158.159 193.06 160.239 190.46C162.406 187.773 163.489 184.653 163.489 181.1C163.489 178.327 162.493 175.813 160.499 173.56C158.593 171.307 155.256 170.18 150.489 170.18H145.679L146.329 165.89H150.749C153.956 165.89 156.686 165.24 158.939 163.94C161.193 162.64 162.926 161.037 164.139 159.13C165.353 157.137 165.959 155.1 165.959 153.02C165.959 150.42 165.136 148.34 163.489 146.78C161.929 145.22 159.676 144.44 156.729 144.44C153.523 144.44 150.533 145.263 147.759 146.91C144.986 148.557 142.126 151.33 139.179 155.23H138.919L137.619 154.19C143.253 143.53 151.009 138.2 160.889 138.2C165.656 138.2 169.296 139.413 171.809 141.84C174.323 144.18 175.579 147.43 175.579 151.59C175.579 154.97 174.149 158.263 171.289 161.47C168.516 164.59 164.399 166.67 158.939 167.71C163.966 168.49 167.606 170.137 169.859 172.65C172.199 175.077 173.369 177.807 173.369 180.84C173.369 183.787 172.416 186.69 170.509 189.55C168.603 192.323 165.916 194.663 162.449 196.57C159.069 198.39 154.996 199.3 150.229 199.3ZM206.016 199.3C199.343 199.3 194.446 197.48 191.326 193.84C188.206 190.113 186.646 185.087 186.646 178.76C186.646 173.647 187.47 168.707 189.116 163.94C190.85 159.087 193.19 154.753 196.136 150.94C199.17 147.04 202.636 143.963 206.536 141.71C210.523 139.37 214.813 138.2 219.406 138.2C223.74 138.2 226.99 139.197 229.156 141.19C231.41 143.183 232.536 145.523 232.536 148.21C232.536 151.157 231.496 153.887 229.416 156.4C227.336 158.827 223.696 161.08 218.496 163.16C213.383 165.153 206.146 166.93 196.786 168.49C196.613 170.223 196.526 172.043 196.526 173.95C196.526 179.237 197.653 183.44 199.906 186.56C202.16 189.68 205.713 191.24 210.566 191.24C213.426 191.24 216.243 190.46 219.016 188.9C221.79 187.34 224.65 184.783 227.596 181.23H227.856L229.156 182.27C226.21 187.383 222.656 191.5 218.496 194.62C214.423 197.74 210.263 199.3 206.016 199.3ZM215.896 142.75C211.216 142.75 207.23 144.7 203.936 148.6C200.73 152.413 198.563 157.483 197.436 163.81C203.936 162.683 209.006 161.47 212.646 160.17C216.286 158.87 218.843 157.353 220.316 155.62C221.79 153.8 222.526 151.547 222.526 148.86C222.526 147.127 221.963 145.697 220.836 144.57C219.71 143.357 218.063 142.75 215.896 142.75ZM243.373 198L252.343 147.43L242.203 142.88V142.1L260.663 138.2H261.053V151.85H261.573C264.607 148.47 267.207 145.783 269.373 143.79C271.54 141.797 273.663 140.367 275.743 139.5C277.823 138.633 280.25 138.2 283.023 138.2C286.23 138.2 288.873 139.413 290.953 141.84C293.033 144.267 294.16 147.603 294.333 151.85H294.983C298.017 148.47 300.617 145.783 302.783 143.79C304.95 141.797 307.03 140.367 309.023 139.5C311.103 138.633 313.573 138.2 316.433 138.2C320.333 138.2 323.367 139.933 325.533 143.4C327.7 146.867 328.263 151.547 327.223 157.44L322.673 182.53C322.24 185.13 322.153 186.993 322.413 188.12C322.673 189.247 323.41 189.81 324.623 189.81C326.097 189.81 327.7 189.03 329.433 187.47C331.167 185.823 332.813 183.353 334.373 180.06L336.063 180.84C333.55 187.34 330.82 192.063 327.873 195.01C325.013 197.87 322.067 199.3 319.033 199.3C316 199.3 313.92 198.13 312.793 195.79C311.667 193.45 311.45 190.33 312.143 186.43L317.213 157.83C317.733 154.797 317.43 152.11 316.303 149.77C315.263 147.343 313.01 146.13 309.543 146.13C307.637 146.13 305.73 146.78 303.823 148.08C302.003 149.293 300.227 150.81 298.493 152.63C296.76 154.363 295.2 156.01 293.813 157.57L286.533 198H276.653L283.803 157.83C284.323 154.797 284.02 152.11 282.893 149.77C281.853 147.343 279.6 146.13 276.133 146.13C274.227 146.13 272.32 146.78 270.413 148.08C268.507 149.38 266.643 150.94 264.823 152.76C263.09 154.493 261.53 156.183 260.143 157.83L253.253 198H243.373ZM368.25 200.2C362.383 200.2 357.617 197.707 353.95 192.72C350.43 187.587 348.67 179.96 348.67 169.84C348.67 160.747 350.063 151.873 352.85 143.22C355.783 134.567 359.743 126.72 364.73 119.68C369.863 112.64 375.73 107.067 382.33 102.96C388.93 98.8533 395.97 96.8 403.45 96.8C407.117 96.8 410.637 97.24 414.01 98.12C417.383 99 420.39 100.173 423.03 101.64L430.73 96.8H436.23L422.81 171.82C422.077 176.22 421.93 179.373 422.37 181.28C422.957 183.187 424.203 184.14 426.11 184.14C428.603 184.14 431.317 182.82 434.25 180.18C437.183 177.393 439.97 173.213 442.61 167.64L445.47 168.96C441.217 179.96 436.597 187.953 431.61 192.94C426.77 197.78 421.783 200.2 416.65 200.2C411.517 200.2 407.997 198.22 406.09 194.26C404.183 190.3 403.817 185.02 404.99 178.42L406.09 172.7H405.21C399.637 181.207 393.77 187.953 387.61 192.94C381.45 197.78 374.997 200.2 368.25 200.2ZM365.39 161.26C365.39 169.473 366.27 175.633 368.03 179.74C369.937 183.7 373.457 185.68 378.59 185.68C382.11 185.68 385.63 184.507 389.15 182.16C392.67 179.813 396.043 176.807 399.27 173.14C402.497 169.473 405.357 165.733 407.85 161.92L415.99 116.6C413.203 112.933 410.343 110.147 407.41 108.24C404.623 106.333 401.177 105.38 397.07 105.38C390.763 105.38 385.19 108.093 380.35 113.52C375.657 118.947 371.99 125.913 369.35 134.42C366.71 142.927 365.39 151.873 365.39 161.26Z" fill="black"/>
<circle cx="428" cy="173" r="45" fill="black"/>
<mask id="mask0_505_8964" style="mask-type:alpha" maskUnits="userSpaceOnUse" x="383" y="128" width="90" height="90">
<circle cx="428" cy="173" r="45" fill="white"/>
</mask>
<g mask="url(#mask0_505_8964)">
<path d="M367.92 200.2C362.053 200.2 357.287 197.707 353.62 192.72C350.1 187.587 348.34 179.96 348.34 169.84C348.34 160.747 349.733 151.873 352.52 143.22C355.453 134.567 359.413 126.72 364.4 119.68C369.533 112.64 375.4 107.067 382 102.96C388.6 98.8533 395.64 96.8 403.12 96.8C406.787 96.8 410.307 97.24 413.68 98.12C417.053 99 420.06 100.173 422.7 101.64L430.4 96.8H435.9L422.48 171.82C421.747 176.22 421.6 179.373 422.04 181.28C422.627 183.187 423.873 184.14 425.78 184.14C428.273 184.14 430.987 182.82 433.92 180.18C436.853 177.393 439.64 173.213 442.28 167.64L445.14 168.96C440.887 179.96 436.267 187.953 431.28 192.94C426.44 197.78 421.453 200.2 416.32 200.2C411.187 200.2 407.667 198.22 405.76 194.26C403.853 190.3 403.487 185.02 404.66 178.42L405.76 172.7H404.88C399.307 181.207 393.44 187.953 387.28 192.94C381.12 197.78 374.667 200.2 367.92 200.2ZM365.06 161.26C365.06 169.473 365.94 175.633 367.7 179.74C369.607 183.7 373.127 185.68 378.26 185.68C381.78 185.68 385.3 184.507 388.82 182.16C392.34 179.813 395.713 176.807 398.94 173.14C402.167 169.473 405.027 165.733 407.52 161.92L415.66 116.6C412.873 112.933 410.013 110.147 407.08 108.24C404.293 106.333 400.847 105.38 396.74 105.38C390.433 105.38 384.86 108.093 380.02 113.52C375.327 118.947 371.66 125.913 369.02 134.42C366.38 142.927 365.06 151.873 365.06 161.26Z" fill="white"/>
</g>
</svg>
